<?xml version="1.0" encoding="UTF-8" standalone="no"?><!-- Generator: Gravit.io --><svg xmlns="http://www.w3.org/2000/svg" xmlns:xlink="http://www.w3.org/1999/xlink" style="isolation:isolate" viewBox="0 0 512 512" width="512pt" height="512pt"><defs><clipPath id="_clipPath_59eRaxVqfxugswxqot50rSiks59AkFIq"><rect width="512" height="512"/></clipPath></defs><g clip-path="url(#_clipPath_59eRaxVqfxugswxqot50rSiks59AkFIq)"><path d=" M 286.317 242 C 324.65 199 356.65 182.333 382.317 192 Q 423.008 179.425 433.317 174 C 443.626 168.575 457.109 157.465 467.317 153 Q 477.524 148.535 456.317 235 L 418.317 236 L 455.317 242 Q 445.015 274.593 428.317 280 Q 411.618 285.407 390.317 272 L 418.317 288 Q 404.927 308.861 390.317 316 Q 375.706 323.139 324.317 310" fill="rgb(255,255,255)" vector-effect="non-scaling-stroke" stroke-width="4" stroke="rgb(0,0,0)" stroke-linejoin="miter" stroke-linecap="square" stroke-miterlimit="3"/><path d=" M 232.317 244.353 C 193.983 201.353 161.983 184.686 136.317 194.353 Q 95.626 181.778 85.317 176.353 C 75.008 170.928 61.524 159.818 51.317 155.353 Q 41.109 150.888 62.317 237.353 L 100.317 238.353 L 63.317 244.353 Q 73.618 276.946 90.317 282.353 Q 107.015 287.76 128.317 274.353 L 100.317 290.353 Q 113.706 311.214 128.317 318.353 Q 142.927 325.492 194.317 312.353" fill="rgb(255,255,255)" vector-effect="non-scaling-stroke" stroke-width="4" stroke="rgb(0,0,0)" stroke-linejoin="miter" stroke-linecap="square" stroke-miterlimit="3"/><circle vector-effect="non-scaling-stroke" cx="260.3165672692746" cy="303" r="64.00000000000001" fill="rgb(0,187,255)" stroke-width="4" stroke="rgb(0,0,0)" stroke-linejoin="miter" stroke-linecap="square" stroke-miterlimit="3"/></g></svg>